<?xml version="1.0" encoding="UTF-8" standalone="no"?><svg xmlns="http://www.w3.org/2000/svg" xmlns:xlink="http://www.w3.org/1999/xlink" clip-rule="evenodd" stroke-miterlimit="10" viewBox="0 0 1024 768"><desc>SVG generated by Keynote</desc><defs></defs><g transform="matrix(1.00, 0.00, -0.00, -1.00, 0.0, 768.0)"><path d="M 0.0 768.0 L 1024.0 768.0 L 1024.0 0.0 L 0.0 0.0 Z M 0.0 768.0 " fill="#FEFFFF"></path><image xlink:href="33E7E99A80DADF09FD3F18847B1750DD.jpeg" width="2234.00" height="1398.00" transform="matrix(0.55, 0.00, -0.00, -0.55, -101.5, 768.0)"></image><text xml:space="preserve" font-family="Helvetica-Bold,Helvetica" font-weight="bold" font-size="36.0" fill="#000000" transform="matrix(1.00, 0.00, -0.00, -1.00, 12.7, 46.5)">P</text><text xml:space="preserve" font-family="Helvetica-Bold,Helvetica" font-weight="bold" font-size="36.0" fill="#000000" transform="matrix(1.00, 0.00, -0.00, -1.00, 36.7, 46.5)">r</text><text xml:space="preserve" font-family="Helvetica-Bold,Helvetica" font-weight="bold" font-size="36.0" fill="#000000" transform="matrix(1.00, 0.00, -0.00, -1.00, 50.7, 46.5)">e</text><text xml:space="preserve" font-family="Helvetica-Bold,Helvetica" font-weight="bold" font-size="36.0" fill="#000000" transform="matrix(1.00, 0.00, -0.00, -1.00, 70.7, 46.5)">p</text><text xml:space="preserve" font-family="Helvetica-Bold,Helvetica" font-weight="bold" font-size="36.0" fill="#000000" transform="matrix(1.00, 0.00, -0.00, -1.00, 92.7, 46.5)">a</text><text xml:space="preserve" font-family="Helvetica-Bold,Helvetica" font-weight="bold" font-size="36.0" fill="#000000" transform="matrix(1.00, 0.00, -0.00, -1.00, 112.7, 46.5)">r</text><text xml:space="preserve" font-family="Helvetica-Bold,Helvetica" font-weight="bold" font-size="36.0" fill="#000000" transform="matrix(1.00, 0.00, -0.00, -1.00, 126.8, 46.5)">e</text><text xml:space="preserve" font-family="Helvetica-Bold,Helvetica" font-weight="bold" font-size="36.0" fill="#000000" transform="matrix(1.00, 0.00, -0.00, -1.00, 146.8, 46.5)">d</text><text xml:space="preserve" font-family="Helvetica-Bold,Helvetica" font-weight="bold" font-size="36.0" fill="#000000" transform="matrix(1.00, 0.00, -0.00, -1.00, 168.8, 46.5)"> </text><text xml:space="preserve" font-family="Helvetica-Bold,Helvetica" font-weight="bold" font-size="36.0" fill="#000000" transform="matrix(1.00, 0.00, -0.00, -1.00, 178.8, 46.5)">b</text><text xml:space="preserve" font-family="Helvetica-Bold,Helvetica" font-weight="bold" font-size="36.0" fill="#000000" transform="matrix(1.00, 0.00, -0.00, -1.00, 200.7, 46.5)">y</text><text xml:space="preserve" font-family="Helvetica-Bold,Helvetica" font-weight="bold" font-size="36.0" fill="#000000" transform="matrix(1.00, 0.00, -0.00, -1.00, 220.8, 46.5)"> </text><text xml:space="preserve" font-family="Helvetica-Bold,Helvetica" font-weight="bold" font-size="36.0" fill="#000000" transform="matrix(1.00, 0.00, -0.00, -1.00, 229.5, 46.5)">A</text><text xml:space="preserve" font-family="Helvetica-Bold,Helvetica" font-weight="bold" font-size="36.0" fill="#000000" transform="matrix(1.00, 0.00, -0.00, -1.00, 255.5, 46.5)">ï¬</text><text xml:space="preserve" font-family="Helvetica-Bold,Helvetica" font-weight="bold" font-size="36.0" fill="#000000" transform="matrix(1.00, 0.00, -0.00, -1.00, 277.4, 46.5)">q</text><text xml:space="preserve" font-family="Helvetica-Bold,Helvetica" font-weight="bold" font-size="36.0" fill="#000000" transform="matrix(1.00, 0.00, -0.00, -1.00, 299.4, 46.5)"> </text><text xml:space="preserve" font-family="Helvetica-Bold,Helvetica" font-weight="bold" font-size="36.0" fill="#000000" transform="matrix(1.00, 0.00, -0.00, -1.00, 308.1, 46.5)">A</text><text xml:space="preserve" font-family="Helvetica-Bold,Helvetica" font-weight="bold" font-size="36.0" fill="#000000" transform="matrix(1.00, 0.00, -0.00, -1.00, 334.1, 46.5)">z</text><text xml:space="preserve" font-family="Helvetica-Bold,Helvetica" font-weight="bold" font-size="36.0" fill="#000000" transform="matrix(1.00, 0.00, -0.00, -1.00, 352.1, 46.5)">m</text><text xml:space="preserve" font-family="Helvetica-Bold,Helvetica" font-weight="bold" font-size="36.0" fill="#000000" transform="matrix(1.00, 0.00, -0.00, -1.00, 384.1, 46.5)">i</text><text xml:space="preserve" font-family="Helvetica-Light,Helvetica" font-size="24.0" fill="#000000" transform="matrix(1.00, 0.00, -0.00, -1.00, 12.7, 14.8)">W</text><text xml:space="preserve" font-family="Helvetica-Light,Helvetica" font-size="24.0" fill="#000000" transform="matrix(1.00, 0.00, -0.00, -1.00, 34.0, 14.8)">i</text><text xml:space="preserve" font-family="Helvetica-Light,Helvetica" font-size="24.0" fill="#000000" transform="matrix(1.00, 0.00, -0.00, -1.00, 39.3, 14.8)">t</text><text xml:space="preserve" font-family="Helvetica-Light,Helvetica" font-size="24.0" fill="#000000" transform="matrix(1.00, 0.00, -0.00, -1.00, 46.0, 14.8)">h</text><text xml:space="preserve" font-family="Helvetica-Light,Helvetica" font-size="24.0" fill="#000000" transform="matrix(1.00, 0.00, -0.00, -1.00, 59.3, 14.8)"> </text><text xml:space="preserve" font-family="Helvetica-Light,Helvetica" font-size="24.0" fill="#000000" transform="matrix(1.00, 0.00, -0.00, -1.00, 66.0, 14.8)">h</text><text xml:space="preserve" font-family="Helvetica-Light,Helvetica" font-size="24.0" fill="#000000" transform="matrix(1.00, 0.00, -0.00, -1.00, 79.4, 14.8)">e</text><text xml:space="preserve" font-family="Helvetica-Light,Helvetica" font-size="24.0" fill="#000000" transform="matrix(1.00, 0.00, -0.00, -1.00, 92.7, 14.8)">l</text><text xml:space="preserve" font-family="Helvetica-Light,Helvetica" font-size="24.0" fill="#000000" transform="matrix(1.00, 0.00, -0.00, -1.00, 98.0, 14.8)">p</text><text xml:space="preserve" font-family="Helvetica-Light,Helvetica" font-size="24.0" fill="#000000" transform="matrix(1.00, 0.00, -0.00, -1.00, 112.7, 14.8)"> </text><text xml:space="preserve" font-family="Helvetica-Light,Helvetica" font-size="24.0" fill="#000000" transform="matrix(1.00, 0.00, -0.00, -1.00, 119.4, 14.8)">f</text><text xml:space="preserve" font-family="Helvetica-Light,Helvetica" font-size="24.0" fill="#000000" transform="matrix(1.00, 0.00, -0.00, -1.00, 126.0, 14.8)">r</text><text xml:space="preserve" font-family="Helvetica-Light,Helvetica" font-size="24.0" fill="#000000" transform="matrix(1.00, 0.00, -0.00, -1.00, 133.6, 14.8)">o</text><text xml:space="preserve" font-family="Helvetica-Light,Helvetica" font-size="24.0" fill="#000000" transform="matrix(1.00, 0.00, -0.00, -1.00, 146.9, 14.8)">m</text><text xml:space="preserve" font-family="Helvetica-Light,Helvetica" font-size="24.0" fill="#000000" transform="matrix(1.00, 0.00, -0.00, -1.00, 166.9, 14.8)"> </text><text xml:space="preserve" font-family="Helvetica-Light,Helvetica" font-size="24.0" fill="#000000" transform="matrix(1.00, 0.00, -0.00, -1.00, 173.6, 14.8)">P</text><text xml:space="preserve" font-family="Helvetica-Light,Helvetica" font-size="24.0" fill="#000000" transform="matrix(1.00, 0.00, -0.00, -1.00, 188.3, 14.8)">r</text><text xml:space="preserve" font-family="Helvetica-Light,Helvetica" font-size="24.0" fill="#000000" transform="matrix(1.00, 0.00, -0.00, -1.00, 195.8, 14.8)">o</text><text xml:space="preserve" font-family="Helvetica-Light,Helvetica" font-size="24.0" fill="#000000" transform="matrix(1.00, 0.00, -0.00, -1.00, 209.2, 14.8)">f</text><text xml:space="preserve" font-family="Helvetica-Light,Helvetica" font-size="24.0" fill="#000000" transform="matrix(1.00, 0.00, -0.00, -1.00, 215.9, 14.8)">.</text><text xml:space="preserve" font-family="Helvetica-Light,Helvetica" font-size="24.0" fill="#000000" transform="matrix(1.00, 0.00, -0.00, -1.00, 222.5, 14.8)"> </text><text xml:space="preserve" font-family="Helvetica-Light,Helvetica" font-size="24.0" fill="#000000" transform="matrix(1.00, 0.00, -0.00, -1.00, 229.2, 14.8)">G</text><text xml:space="preserve" font-family="Helvetica-Light,Helvetica" font-size="24.0" fill="#000000" transform="matrix(1.00, 0.00, -0.00, -1.00, 247.9, 14.8)">o</text><text xml:space="preserve" font-family="Helvetica-Light,Helvetica" font-size="24.0" fill="#000000" transform="matrix(1.00, 0.00, -0.00, -1.00, 261.2, 14.8)">o</text><text xml:space="preserve" font-family="Helvetica-Light,Helvetica" font-size="24.0" fill="#000000" transform="matrix(1.00, 0.00, -0.00, -1.00, 274.6, 14.8)">g</text><text xml:space="preserve" font-family="Helvetica-Light,Helvetica" font-size="24.0" fill="#000000" transform="matrix(1.00, 0.00, -0.00, -1.00, 289.2, 14.8)">l</text><text xml:space="preserve" font-family="Helvetica-Light,Helvetica" font-size="24.0" fill="#000000" transform="matrix(1.00, 0.00, -0.00, -1.00, 294.5, 14.8)">e</text></g></svg>