<?xml version="1.0" encoding="UTF-8" standalone="no"?><svg xmlns="http://www.w3.org/2000/svg" xmlns:xlink="http://www.w3.org/1999/xlink" clip-rule="evenodd" stroke-miterlimit="10" viewBox="0 0 1024 768"><desc>SVG generated by Keynote</desc><defs></defs><g transform="matrix(1.00, 0.00, -0.00, -1.00, 0.0, 768.0)"><path d="M 0.0 768.0 L 1024.0 768.0 L 1024.0 0.0 L 0.0 0.0 Z M 0.0 768.0 " fill="#000000"></path><image xlink:href="C296A77DEDDD797D8CDA02DDBD026237.png" width="1500.00" height="1000.00" transform="matrix(0.68, 0.00, -0.00, -0.68, 0.0, 725.3)"></image><text xml:space="preserve" font-family="Helvetica-Light,Helvetica" font-size="24.0" fill="#52575F" transform="matrix(1.00, 0.00, -0.00, -1.00, 870.1, 12.9)">G</text><text xml:space="preserve" font-family="Helvetica-Light,Helvetica" font-size="24.0" fill="#52575F" transform="matrix(1.00, 0.00, -0.00, -1.00, 888.8, 12.9)">a</text><text xml:space="preserve" font-family="Helvetica-Light,Helvetica" font-size="24.0" fill="#52575F" transform="matrix(1.00, 0.00, -0.00, -1.00, 902.1, 12.9)">m</text><text xml:space="preserve" font-family="Helvetica-Light,Helvetica" font-size="24.0" fill="#52575F" transform="matrix(1.00, 0.00, -0.00, -1.00, 922.1, 12.9)">b</text><text xml:space="preserve" font-family="Helvetica-Light,Helvetica" font-size="24.0" fill="#52575F" transform="matrix(1.00, 0.00, -0.00, -1.00, 936.8, 12.9)">a</text><text xml:space="preserve" font-family="Helvetica-Light,Helvetica" font-size="24.0" fill="#52575F" transform="matrix(1.00, 0.00, -0.00, -1.00, 950.1, 12.9)">r</text><text xml:space="preserve" font-family="Helvetica-Light,Helvetica" font-size="24.0" fill="#52575F" transform="matrix(1.00, 0.00, -0.00, -1.00, 958.1, 12.9)"> </text><text xml:space="preserve" font-family="Helvetica-Light,Helvetica" font-size="24.0" fill="#52575F" transform="matrix(1.00, 0.00, -0.00, -1.00, 964.8, 12.9)">c</text><text xml:space="preserve" font-family="Helvetica-Light,Helvetica" font-size="24.0" fill="#52575F" transform="matrix(1.00, 0.00, -0.00, -1.00, 978.1, 12.9)">i</text><text xml:space="preserve" font-family="Helvetica-Light,Helvetica" font-size="24.0" fill="#52575F" transform="matrix(1.00, 0.00, -0.00, -1.00, 983.5, 12.9)">l</text><text xml:space="preserve" font-family="Helvetica-Light,Helvetica" font-size="24.0" fill="#52575F" transform="matrix(1.00, 0.00, -0.00, -1.00, 988.8, 12.9)">o</text><text xml:space="preserve" font-family="Helvetica-Light,Helvetica" font-size="24.0" fill="#52575F" transform="matrix(1.00, 0.00, -0.00, -1.00, 1002.1, 12.9)">k</text></g></svg>