<?xml version="1.0" encoding="UTF-8" standalone="no"?><svg xmlns="http://www.w3.org/2000/svg" xmlns:xlink="http://www.w3.org/1999/xlink" clip-rule="evenodd" stroke-miterlimit="10" viewBox="0 0 1024 768"><desc>SVG generated by Keynote</desc><defs></defs><g transform="matrix(1.00, 0.00, -0.00, -1.00, 0.0, 768.0)"><path d="M 0.0 768.0 L 1024.0 768.0 L 1024.0 0.0 L 0.0 0.0 Z M 0.0 768.0 " fill="#E31A77"></path><image xlink:href="../../BB0E6918-7EAE-4D53-9AF7-029A8CF8CFF9/assets/37FB8B73FF79FEA16EDA15225A1486C0.png" width="1716.00" height="1048.00" transform="matrix(0.23, 0.00, -0.00, -0.23, 86.1, 506.1)"></image><image xlink:href="../../BB0E6918-7EAE-4D53-9AF7-029A8CF8CFF9/assets/FC8D14AD11624CCEEE093216AAA782C0.png" width="1206.00" height="886.00" transform="matrix(0.33, 0.00, -0.00, -0.33, 593.7, 290.7)"></image><image xlink:href="../../BB0E6918-7EAE-4D53-9AF7-029A8CF8CFF9/assets/C0879F15EA70A6A185D729140B4EBC3E.png" width="1280.00" height="868.00" transform="matrix(0.31, 0.00, -0.00, -0.31, 83.1, 768.0)"></image><image xlink:href="../../BB0E6918-7EAE-4D53-9AF7-029A8CF8CFF9/assets/4E289CD362E3D8B67489739EC1E0BC39.png" width="1440.00" height="888.00" transform="matrix(0.28, 0.00, -0.00, -0.28, 83.1, 256.8)"></image><image xlink:href="../../BB0E6918-7EAE-4D53-9AF7-029A8CF8CFF9/assets/7D665399DAED4A27C56117DEA959B2F0.png" width="1412.00" height="924.00" transform="matrix(0.28, 0.00, -0.00, -0.28, 606.7, 770.1)"></image><image xlink:href="../../BB0E6918-7EAE-4D53-9AF7-029A8CF8CFF9/assets/03A6B36FA7565A17300904EDAC91E477.png" width="1438.00" height="892.00" transform="matrix(0.28, 0.00, -0.00, -0.28, 588.0, 530.2)"></image></g></svg>