<?xml version="1.0" encoding="UTF-8" standalone="no"?><svg xmlns="http://www.w3.org/2000/svg" xmlns:xlink="http://www.w3.org/1999/xlink" clip-rule="evenodd" stroke-miterlimit="10" viewBox="0 0 1024 768"><desc>SVG generated by Keynote</desc><defs></defs><g transform="matrix(1.00, 0.00, -0.00, -1.00, 0.0, 768.0)"><path d="M 0.0 768.0 L 1024.0 768.0 L 1024.0 0.0 L 0.0 0.0 Z M 0.0 768.0 " fill="#FEFFFF"></path><image xlink:href="../../01445D97-7283-4306-8C49-E865C4926974/assets/0983EE21B2C2DCAF555F470ADBA579DD.jpeg" width="850.00" height="1113.00" transform="matrix(0.66, 0.00, -0.00, -0.65, 446.9, 748.4)"></image><text xml:space="preserve" font-family="Helvetica-Light,Helvetica" font-size="36.0" fill="#000000" transform="matrix(1.00, 0.00, -0.00, -1.00, 44.0, 370.8)">C</text><text xml:space="preserve" font-family="Helvetica-Light,Helvetica" font-size="36.0" fill="#000000" transform="matrix(1.00, 0.00, -0.00, -1.00, 70.0, 370.8)">o</text><text xml:space="preserve" font-family="Helvetica-Light,Helvetica" font-size="36.0" fill="#000000" transform="matrix(1.00, 0.00, -0.00, -1.00, 90.0, 370.8)">r</text><text xml:space="preserve" font-family="Helvetica-Light,Helvetica" font-size="36.0" fill="#000000" transform="matrix(1.00, 0.00, -0.00, -1.00, 102.0, 370.8)">a</text><text xml:space="preserve" font-family="Helvetica-Light,Helvetica" font-size="36.0" fill="#000000" transform="matrix(1.00, 0.00, -0.00, -1.00, 122.0, 370.8)">k</text><text xml:space="preserve" font-family="Helvetica-Light,Helvetica" font-size="36.0" fill="#000000" transform="matrix(1.00, 0.00, -0.00, -1.00, 140.0, 370.8)"> </text><text xml:space="preserve" font-family="Helvetica-Light,Helvetica" font-size="36.0" fill="#000000" transform="matrix(1.00, 0.00, -0.00, -1.00, 150.0, 370.8)">/</text><text xml:space="preserve" font-family="Helvetica-Light,Helvetica" font-size="36.0" fill="#000000" transform="matrix(1.00, 0.00, -0.00, -1.00, 160.0, 370.8)"> </text><text xml:space="preserve" font-family="Helvetica-Light,Helvetica" font-size="36.0" fill="#000000" transform="matrix(1.00, 0.00, -0.00, -1.00, 170.0, 370.8)">P</text><text xml:space="preserve" font-family="Helvetica-Light,Helvetica" font-size="36.0" fill="#000000" transform="matrix(1.00, 0.00, -0.00, -1.00, 192.0, 370.8)">o</text><text xml:space="preserve" font-family="Helvetica-Light,Helvetica" font-size="36.0" fill="#000000" transform="matrix(1.00, 0.00, -0.00, -1.00, 212.0, 370.8)">l</text><text xml:space="preserve" font-family="Helvetica-Light,Helvetica" font-size="36.0" fill="#000000" transform="matrix(1.00, 0.00, -0.00, -1.00, 220.0, 370.8)">a</text></g></svg>