<?xml version="1.0" encoding="UTF-8" standalone="no"?><svg xmlns="http://www.w3.org/2000/svg" xmlns:xlink="http://www.w3.org/1999/xlink" clip-rule="evenodd" stroke-miterlimit="10" viewBox="0 0 1024 768"><desc>SVG generated by Keynote</desc><defs></defs><g transform="matrix(1.00, 0.00, -0.00, -1.00, 0.0, 768.0)"><path d="M 0.0 768.0 L 1024.0 768.0 L 1024.0 0.0 L 0.0 0.0 Z M 0.0 768.0 " fill="#FEFFFF"></path><text xml:space="preserve" font-family="Helvetica-Light,Helvetica" font-size="24.0" fill="#000000" transform="matrix(1.00, 0.00, -0.00, -1.00, 406.0, 405.4)">D</text><text xml:space="preserve" font-family="Helvetica-Light,Helvetica" font-size="24.0" fill="#000000" transform="matrix(1.00, 0.00, -0.00, -1.00, 423.3, 405.4)">a</text><text xml:space="preserve" font-family="Helvetica-Light,Helvetica" font-size="24.0" fill="#000000" transform="matrix(1.00, 0.00, -0.00, -1.00, 436.7, 405.4)">l</text><text xml:space="preserve" font-family="Helvetica-Light,Helvetica" font-size="24.0" fill="#000000" transform="matrix(1.00, 0.00, -0.00, -1.00, 442.0, 405.4)">a</text><text xml:space="preserve" font-family="Helvetica-Light,Helvetica" font-size="24.0" fill="#000000" transform="matrix(1.00, 0.00, -0.00, -1.00, 455.3, 405.4)">m</text><text xml:space="preserve" font-family="Helvetica-Light,Helvetica" font-size="24.0" fill="#000000" transform="matrix(1.00, 0.00, -0.00, -1.00, 475.3, 405.4)"> </text><text xml:space="preserve" font-family="Helvetica-Light,Helvetica" font-size="24.0" fill="#000000" transform="matrix(1.00, 0.00, -0.00, -1.00, 482.0, 405.4)">s</text><text xml:space="preserve" font-family="Helvetica-Light,Helvetica" font-size="24.0" fill="#000000" transform="matrix(1.00, 0.00, -0.00, -1.00, 494.0, 405.4)">a</text><text xml:space="preserve" font-family="Helvetica-Light,Helvetica" font-size="24.0" fill="#000000" transform="matrix(1.00, 0.00, -0.00, -1.00, 507.3, 405.4)">t</text><text xml:space="preserve" font-family="Helvetica-Light,Helvetica" font-size="24.0" fill="#000000" transform="matrix(1.00, 0.00, -0.00, -1.00, 514.0, 405.4)">u</text><text xml:space="preserve" font-family="Helvetica-Light,Helvetica" font-size="24.0" fill="#000000" transform="matrix(1.00, 0.00, -0.00, -1.00, 527.3, 405.4)"> </text><text xml:space="preserve" font-family="Helvetica-Light,Helvetica" font-size="24.0" fill="#000000" transform="matrix(1.00, 0.00, -0.00, -1.00, 534.0, 405.4)">g</text><text xml:space="preserve" font-family="Helvetica-Light,Helvetica" font-size="24.0" fill="#000000" transform="matrix(1.00, 0.00, -0.00, -1.00, 548.7, 405.4)">a</text><text xml:space="preserve" font-family="Helvetica-Light,Helvetica" font-size="24.0" fill="#000000" transform="matrix(1.00, 0.00, -0.00, -1.00, 562.0, 405.4)">m</text><text xml:space="preserve" font-family="Helvetica-Light,Helvetica" font-size="24.0" fill="#000000" transform="matrix(1.00, 0.00, -0.00, -1.00, 582.0, 405.4)">b</text><text xml:space="preserve" font-family="Helvetica-Light,Helvetica" font-size="24.0" fill="#000000" transform="matrix(1.00, 0.00, -0.00, -1.00, 596.7, 405.4)">a</text><text xml:space="preserve" font-family="Helvetica-Light,Helvetica" font-size="24.0" fill="#000000" transform="matrix(1.00, 0.00, -0.00, -1.00, 610.0, 405.4)">r</text><text xml:space="preserve" font-family="Helvetica-Light,Helvetica" font-size="38.0" fill="#000000" transform="matrix(1.00, 0.00, -0.00, -1.00, 345.9, 347.9)">h</text><text xml:space="preserve" font-family="Helvetica-Light,Helvetica" font-size="38.0" fill="#000000" transform="matrix(1.00, 0.00, -0.00, -1.00, 367.0, 347.9)">t</text><text xml:space="preserve" font-family="Helvetica-Light,Helvetica" font-size="38.0" fill="#000000" transform="matrix(1.00, 0.00, -0.00, -1.00, 377.6, 347.9)">t</text><text xml:space="preserve" font-family="Helvetica-Light,Helvetica" font-size="38.0" fill="#000000" transform="matrix(1.00, 0.00, -0.00, -1.00, 388.1, 347.9)">p</text><text xml:space="preserve" font-family="Helvetica-Light,Helvetica" font-size="38.0" fill="#000000" transform="matrix(1.00, 0.00, -0.00, -1.00, 411.3, 347.9)">:</text><text xml:space="preserve" font-family="Helvetica-Light,Helvetica" font-size="38.0" fill="#000000" transform="matrix(1.00, 0.00, -0.00, -1.00, 421.9, 347.9)">/</text><text xml:space="preserve" font-family="Helvetica-Light,Helvetica" font-size="38.0" fill="#000000" transform="matrix(1.00, 0.00, -0.00, -1.00, 432.5, 347.9)">/</text><text xml:space="preserve" font-family="Helvetica-Light,Helvetica" font-size="38.0" fill="#000000" transform="matrix(1.00, 0.00, -0.00, -1.00, 443.0, 347.9)">g</text><text xml:space="preserve" font-family="Helvetica-Light,Helvetica" font-size="38.0" fill="#000000" transform="matrix(1.00, 0.00, -0.00, -1.00, 466.2, 347.9)">o</text><text xml:space="preserve" font-family="Helvetica-Light,Helvetica" font-size="38.0" fill="#000000" transform="matrix(1.00, 0.00, -0.00, -1.00, 487.4, 347.9)">o</text><text xml:space="preserve" font-family="Helvetica-Light,Helvetica" font-size="38.0" fill="#000000" transform="matrix(1.00, 0.00, -0.00, -1.00, 508.5, 347.9)">.</text><text xml:space="preserve" font-family="Helvetica-Light,Helvetica" font-size="38.0" fill="#000000" transform="matrix(1.00, 0.00, -0.00, -1.00, 519.1, 347.9)">g</text><text xml:space="preserve" font-family="Helvetica-Light,Helvetica" font-size="38.0" fill="#000000" transform="matrix(1.00, 0.00, -0.00, -1.00, 542.3, 347.9)">l</text><text xml:space="preserve" font-family="Helvetica-Light,Helvetica" font-size="38.0" fill="#000000" transform="matrix(1.00, 0.00, -0.00, -1.00, 550.7, 347.9)">/</text><text xml:space="preserve" font-family="Helvetica-Light,Helvetica" font-size="38.0" fill="#000000" transform="matrix(1.00, 0.00, -0.00, -1.00, 561.3, 347.9)">o</text><text xml:space="preserve" font-family="Helvetica-Light,Helvetica" font-size="38.0" fill="#000000" transform="matrix(1.00, 0.00, -0.00, -1.00, 582.4, 347.9)">Y</text><text xml:space="preserve" font-family="Helvetica-Light,Helvetica" font-size="38.0" fill="#000000" transform="matrix(1.00, 0.00, -0.00, -1.00, 602.1, 347.9)">q</text><text xml:space="preserve" font-family="Helvetica-Light,Helvetica" font-size="38.0" fill="#000000" transform="matrix(1.00, 0.00, -0.00, -1.00, 625.4, 347.9)">p</text><text xml:space="preserve" font-family="Helvetica-Light,Helvetica" font-size="38.0" fill="#000000" transform="matrix(1.00, 0.00, -0.00, -1.00, 648.6, 347.9)">9</text><text xml:space="preserve" font-family="Helvetica-Light,Helvetica" font-size="38.0" fill="#000000" transform="matrix(1.00, 0.00, -0.00, -1.00, 669.7, 347.9)">j</text><g><clipPath id="clip0x7fa25d831ee0"><path d="M 344.9 343.1 L 678.1 343.1 L 678.1 347.0 L 344.9 347.0 Z M 344.9 343.1 "></path></clipPath><g clip-path="url(#clip0x7fa25d831ee0)"><path d="M 245.9 44.1 L 578.1 44.1 " fill="none" stroke="#000000" stroke-width="1.90" transform="matrix(1.00, 0.00, 0.00, -1.00, 100.0, 389.1)"></path></g></g></g></svg>