<?xml version="1.0" encoding="UTF-8" standalone="no"?><svg xmlns="http://www.w3.org/2000/svg" xmlns:xlink="http://www.w3.org/1999/xlink" clip-rule="evenodd" stroke-miterlimit="10" viewBox="0 0 1024 768"><desc>SVG generated by Keynote</desc><defs></defs><g transform="matrix(1.00, 0.00, -0.00, -1.00, 0.0, 768.0)"><path d="M 0.0 768.0 L 1024.0 768.0 L 1024.0 0.0 L 0.0 0.0 Z M 0.0 768.0 " fill="#FEFFFF"></path><image xlink:href="3BE3600E8DD3FDACAA12E73625F97925.png" width="1024.00" height="768.00" transform="matrix(1.00, 0.00, -0.00, -1.00, 0.0, 768.0)"></image><path d="M -18.0 784.0 L 1042.0 784.0 L 1042.0 611.0 L -18.0 611.0 Z M -17.5 783.6 " fill="#FEFFFE"></path><text xml:space="preserve" font-family="Helvetica-Bold,Helvetica" font-weight="bold" font-size="60.0" fill="#000000" transform="matrix(1.00, 0.00, -0.00, -1.00, 415.6, 666.7)">W</text><text xml:space="preserve" font-family="Helvetica-Bold,Helvetica" font-weight="bold" font-size="60.0" fill="#000000" transform="matrix(1.00, 0.00, -0.00, -1.00, 471.7, 666.7)">i</text><text xml:space="preserve" font-family="Helvetica-Bold,Helvetica" font-weight="bold" font-size="60.0" fill="#000000" transform="matrix(1.00, 0.00, -0.00, -1.00, 488.4, 666.7)">d</text><text xml:space="preserve" font-family="Helvetica-Bold,Helvetica" font-weight="bold" font-size="60.0" fill="#000000" transform="matrix(1.00, 0.00, -0.00, -1.00, 525.1, 666.7)">o</text><text xml:space="preserve" font-family="Helvetica-Bold,Helvetica" font-weight="bold" font-size="60.0" fill="#000000" transform="matrix(1.00, 0.00, -0.00, -1.00, 561.7, 666.7)">w</text></g></svg>