<?xml version="1.0" encoding="UTF-8" standalone="no"?><svg xmlns="http://www.w3.org/2000/svg" xmlns:xlink="http://www.w3.org/1999/xlink" clip-rule="evenodd" stroke-miterlimit="10" viewBox="0 0 1024 768"><desc>SVG generated by Keynote</desc><defs></defs><g transform="matrix(1.00, 0.00, -0.00, -1.00, 0.0, 768.0)"><path d="M 0.0 768.0 L 1024.0 768.0 L 1024.0 0.0 L 0.0 0.0 Z M 0.0 768.0 " fill="#FEFFFF"></path><image xlink:href="../../FB733103-32E3-412F-8DC5-D55C36C4DE15/assets/20F98002F3308E0E8A564B9C403E1E9D.png" width="1024.00" height="768.00" transform="matrix(1.00, 0.00, -0.00, -1.00, 0.0, 786.6)"></image><path d="M -18.0 784.0 L 1042.0 784.0 L 1042.0 614.0 L -18.0 614.0 Z M -17.5 783.6 " fill="#FEFFFE"></path><text xml:space="preserve" font-family="Helvetica-Bold,Helvetica" font-weight="bold" font-size="60.0" fill="#000000" transform="matrix(1.00, 0.00, -0.00, -1.00, 405.3, 666.7)">O</text><text xml:space="preserve" font-family="Helvetica-Bold,Helvetica" font-weight="bold" font-size="60.0" fill="#000000" transform="matrix(1.00, 0.00, -0.00, -1.00, 452.0, 666.7)">r</text><text xml:space="preserve" font-family="Helvetica-Bold,Helvetica" font-weight="bold" font-size="60.0" fill="#000000" transform="matrix(1.00, 0.00, -0.00, -1.00, 475.3, 666.7)">p</text><text xml:space="preserve" font-family="Helvetica-Bold,Helvetica" font-weight="bold" font-size="60.0" fill="#000000" transform="matrix(1.00, 0.00, -0.00, -1.00, 512.0, 666.7)">h</text><text xml:space="preserve" font-family="Helvetica-Bold,Helvetica" font-weight="bold" font-size="60.0" fill="#000000" transform="matrix(1.00, 0.00, -0.00, -1.00, 548.6, 666.7)">a</text><text xml:space="preserve" font-family="Helvetica-Bold,Helvetica" font-weight="bold" font-size="60.0" fill="#000000" transform="matrix(1.00, 0.00, -0.00, -1.00, 582.0, 666.7)">n</text></g></svg>