<?xml version="1.0" encoding="UTF-8" standalone="no"?><svg xmlns="http://www.w3.org/2000/svg" xmlns:xlink="http://www.w3.org/1999/xlink" clip-rule="evenodd" stroke-miterlimit="10" viewBox="0 0 1024 768"><desc>SVG generated by Keynote</desc><defs></defs><g transform="matrix(1.00, 0.00, -0.00, -1.00, 0.0, 768.0)"><path d="M 0.0 768.0 L 1024.0 768.0 L 1024.0 0.0 L 0.0 0.0 Z M 0.0 768.0 " fill="#FEFFFF"></path><image xlink:href="../../01B1BEA5-27D7-47AB-8B78-4BDDC1700012/assets/201198A45FBC969C4E19883901EF8637.jpeg" width="1432.00" height="953.00" transform="matrix(0.81, 0.00, -0.00, -0.81, -68.3, 770.2)"></image><text xml:space="preserve" font-family="Helvetica-Light,Helvetica" font-size="24.0" fill="#52575F" transform="matrix(1.00, 0.00, -0.00, -1.00, 533.7, 17.0)">T</text><text xml:space="preserve" font-family="Helvetica-Light,Helvetica" font-size="24.0" fill="#52575F" transform="matrix(1.00, 0.00, -0.00, -1.00, 544.8, 17.0)">u</text><text xml:space="preserve" font-family="Helvetica-Light,Helvetica" font-size="24.0" fill="#52575F" transform="matrix(1.00, 0.00, -0.00, -1.00, 558.2, 17.0)">l</text><text xml:space="preserve" font-family="Helvetica-Light,Helvetica" font-size="24.0" fill="#52575F" transform="matrix(1.00, 0.00, -0.00, -1.00, 563.5, 17.0)">i</text><text xml:space="preserve" font-family="Helvetica-Light,Helvetica" font-size="24.0" fill="#52575F" transform="matrix(1.00, 0.00, -0.00, -1.00, 568.8, 17.0)">s</text><text xml:space="preserve" font-family="Helvetica-Light,Helvetica" font-size="24.0" fill="#52575F" transform="matrix(1.00, 0.00, -0.00, -1.00, 580.8, 17.0)">a</text><text xml:space="preserve" font-family="Helvetica-Light,Helvetica" font-size="24.0" fill="#52575F" transform="matrix(1.00, 0.00, -0.00, -1.00, 594.2, 17.0)">n</text><text xml:space="preserve" font-family="Helvetica-Light,Helvetica" font-size="24.0" fill="#52575F" transform="matrix(1.00, 0.00, -0.00, -1.00, 607.5, 17.0)"> </text><text xml:space="preserve" font-family="Helvetica-Light,Helvetica" font-size="24.0" fill="#52575F" transform="matrix(1.00, 0.00, -0.00, -1.00, 614.2, 17.0)">p</text><text xml:space="preserve" font-family="Helvetica-Light,Helvetica" font-size="24.0" fill="#52575F" transform="matrix(1.00, 0.00, -0.00, -1.00, 628.9, 17.0)">u</text><text xml:space="preserve" font-family="Helvetica-Light,Helvetica" font-size="24.0" fill="#52575F" transform="matrix(1.00, 0.00, -0.00, -1.00, 642.2, 17.0)">r</text><text xml:space="preserve" font-family="Helvetica-Light,Helvetica" font-size="24.0" fill="#52575F" transform="matrix(1.00, 0.00, -0.00, -1.00, 650.2, 17.0)">b</text><text xml:space="preserve" font-family="Helvetica-Light,Helvetica" font-size="24.0" fill="#52575F" transform="matrix(1.00, 0.00, -0.00, -1.00, 664.9, 17.0)">a</text><text xml:space="preserve" font-family="Helvetica-Light,Helvetica" font-size="24.0" fill="#52575F" transform="matrix(1.00, 0.00, -0.00, -1.00, 678.2, 17.0)"> </text><text xml:space="preserve" font-family="Helvetica-Light,Helvetica" font-size="24.0" fill="#52575F" transform="matrix(1.00, 0.00, -0.00, -1.00, 684.9, 17.0)">&amp;</text><text xml:space="preserve" font-family="Helvetica-Light,Helvetica" font-size="24.0" fill="#52575F" transform="matrix(1.00, 0.00, -0.00, -1.00, 700.9, 17.0)"> </text><text xml:space="preserve" font-family="Helvetica-Light,Helvetica" font-size="24.0" fill="#52575F" transform="matrix(1.00, 0.00, -0.00, -1.00, 707.6, 17.0)">t</text><text xml:space="preserve" font-family="Helvetica-Light,Helvetica" font-size="24.0" fill="#52575F" transform="matrix(1.00, 0.00, -0.00, -1.00, 714.2, 17.0)">r</text><text xml:space="preserve" font-family="Helvetica-Light,Helvetica" font-size="24.0" fill="#52575F" transform="matrix(1.00, 0.00, -0.00, -1.00, 722.2, 17.0)">a</text><text xml:space="preserve" font-family="Helvetica-Light,Helvetica" font-size="24.0" fill="#52575F" transform="matrix(1.00, 0.00, -0.00, -1.00, 735.6, 17.0)">d</text><text xml:space="preserve" font-family="Helvetica-Light,Helvetica" font-size="24.0" fill="#52575F" transform="matrix(1.00, 0.00, -0.00, -1.00, 750.2, 17.0)">i</text><text xml:space="preserve" font-family="Helvetica-Light,Helvetica" font-size="24.0" fill="#52575F" transform="matrix(1.00, 0.00, -0.00, -1.00, 755.6, 17.0)">s</text><text xml:space="preserve" font-family="Helvetica-Light,Helvetica" font-size="24.0" fill="#52575F" transform="matrix(1.00, 0.00, -0.00, -1.00, 767.6, 17.0)">i</text><text xml:space="preserve" font-family="Helvetica-Light,Helvetica" font-size="24.0" fill="#52575F" transform="matrix(1.00, 0.00, -0.00, -1.00, 772.9, 17.0)">o</text><text xml:space="preserve" font-family="Helvetica-Light,Helvetica" font-size="24.0" fill="#52575F" transform="matrix(1.00, 0.00, -0.00, -1.00, 786.2, 17.0)">n</text><text xml:space="preserve" font-family="Helvetica-Light,Helvetica" font-size="24.0" fill="#52575F" transform="matrix(1.00, 0.00, -0.00, -1.00, 799.6, 17.0)">a</text><text xml:space="preserve" font-family="Helvetica-Light,Helvetica" font-size="24.0" fill="#52575F" transform="matrix(1.00, 0.00, -0.00, -1.00, 812.9, 17.0)">l</text><text xml:space="preserve" font-family="Helvetica-Light,Helvetica" font-size="24.0" fill="#52575F" transform="matrix(1.00, 0.00, -0.00, -1.00, 818.2, 17.0)"> </text><text xml:space="preserve" font-family="Helvetica-Light,Helvetica" font-size="24.0" fill="#52575F" transform="matrix(1.00, 0.00, -0.00, -1.00, 824.9, 17.0)">F</text><text xml:space="preserve" font-family="Helvetica-Light,Helvetica" font-size="24.0" fill="#52575F" transform="matrix(1.00, 0.00, -0.00, -1.00, 838.3, 17.0)">i</text><text xml:space="preserve" font-family="Helvetica-Light,Helvetica" font-size="24.0" fill="#52575F" transform="matrix(1.00, 0.00, -0.00, -1.00, 843.6, 17.0)">l</text><text xml:space="preserve" font-family="Helvetica-Light,Helvetica" font-size="24.0" fill="#52575F" transform="matrix(1.00, 0.00, -0.00, -1.00, 848.9, 17.0)">i</text><text xml:space="preserve" font-family="Helvetica-Light,Helvetica" font-size="24.0" fill="#52575F" transform="matrix(1.00, 0.00, -0.00, -1.00, 854.2, 17.0)">p</text><text xml:space="preserve" font-family="Helvetica-Light,Helvetica" font-size="24.0" fill="#52575F" transform="matrix(1.00, 0.00, -0.00, -1.00, 868.9, 17.0)">i</text><text xml:space="preserve" font-family="Helvetica-Light,Helvetica" font-size="24.0" fill="#52575F" transform="matrix(1.00, 0.00, -0.00, -1.00, 874.2, 17.0)">n</text><text xml:space="preserve" font-family="Helvetica-Light,Helvetica" font-size="24.0" fill="#52575F" transform="matrix(1.00, 0.00, -0.00, -1.00, 887.6, 17.0)">a</text><text xml:space="preserve" font-family="Helvetica-Light,Helvetica" font-size="24.0" fill="#52575F" transform="matrix(1.00, 0.00, -0.00, -1.00, 900.9, 17.0)">:</text><text xml:space="preserve" font-family="Helvetica-Light,Helvetica" font-size="24.0" fill="#52575F" transform="matrix(1.00, 0.00, -0.00, -1.00, 907.6, 17.0)"> </text><text xml:space="preserve" font-family="Helvetica-Light,Helvetica" font-size="24.0" fill="#52575F" transform="matrix(1.00, 0.00, -0.00, -1.00, 914.3, 17.0)">B</text><text xml:space="preserve" font-family="Helvetica-Light,Helvetica" font-size="24.0" fill="#52575F" transform="matrix(1.00, 0.00, -0.00, -1.00, 930.3, 17.0)">a</text><text xml:space="preserve" font-family="Helvetica-Light,Helvetica" font-size="24.0" fill="#52575F" transform="matrix(1.00, 0.00, -0.00, -1.00, 943.6, 17.0)">y</text><text xml:space="preserve" font-family="Helvetica-Light,Helvetica" font-size="24.0" fill="#52575F" transform="matrix(1.00, 0.00, -0.00, -1.00, 955.6, 17.0)">b</text><text xml:space="preserve" font-family="Helvetica-Light,Helvetica" font-size="24.0" fill="#52575F" transform="matrix(1.00, 0.00, -0.00, -1.00, 970.3, 17.0)">a</text><text xml:space="preserve" font-family="Helvetica-Light,Helvetica" font-size="24.0" fill="#52575F" transform="matrix(1.00, 0.00, -0.00, -1.00, 983.6, 17.0)">y</text><text xml:space="preserve" font-family="Helvetica-Light,Helvetica" font-size="24.0" fill="#52575F" transform="matrix(1.00, 0.00, -0.00, -1.00, 995.6, 17.0)">i</text><text xml:space="preserve" font-family="Helvetica-Light,Helvetica" font-size="24.0" fill="#52575F" transform="matrix(1.00, 0.00, -0.00, -1.00, 1001.0, 17.0)">n</text></g></svg>