<?xml version="1.0" encoding="UTF-8" standalone="no"?><svg xmlns="http://www.w3.org/2000/svg" xmlns:xlink="http://www.w3.org/1999/xlink" clip-rule="evenodd" stroke-miterlimit="10" viewBox="0 0 1024 768"><desc>SVG generated by Keynote</desc><defs></defs><g transform="matrix(1.00, 0.00, -0.00, -1.00, 0.0, 768.0)"><path d="M 0.0 768.0 L 1024.0 768.0 L 1024.0 0.0 L 0.0 0.0 Z M 0.0 768.0 " fill="#FEFFFF"></path><image xlink:href="58BF900EE1E57CCDB35E8C1F9AFCCA13.png" width="500.00" height="295.00" transform="matrix(0.96, 0.00, -0.00, -0.96, -64.2, 254.2)"></image><image xlink:href="A7C3DE04AE4497A02D6A98551AA5AB3D.jpeg" width="325.00" height="260.00" transform="matrix(1.30, 0.00, -0.00, -1.30, 315.5, 265.5)"></image><image xlink:href="D2765832FAB62A2DC7906E20EA5C28C7.jpeg" width="400.00" height="300.00" transform="matrix(0.82, 0.00, -0.00, -0.82, 698.6, 473.6)"></image><image xlink:href="705E4C41E035ADEB38C2782A256AAC37.png" width="636.00" height="445.00" transform="matrix(0.38, 0.00, -0.00, -0.38, 791.2, 769.4)"></image><image xlink:href="E534748A40C3CB39207BCF717488DB25.png" width="636.00" height="445.00" transform="matrix(0.51, 0.00, -0.00, -0.51, 698.1, 226.0)"></image><image xlink:href="557E508FBCC70D8FE291C154C803C505.jpeg" width="400.00" height="300.00" transform="matrix(0.44, 0.00, -0.00, -0.44, 847.9, 599.8)"></image><image xlink:href="65C83453C1802550EF6FA41B433318BF.jpeg" width="535.00" height="303.00" transform="matrix(0.53, 0.00, -0.00, -0.53, 511.5, 768.7)"></image><g><clipPath id="clip0x7fa25bf91d60"><path d="M -54.0 769.0 L 230.0 769.0 L 230.0 557.0 L -54.0 557.0 Z M -53.7 769.4 "></path></clipPath><g clip-path="url(#clip0x7fa25bf91d60)"><image xlink:href="47AE04CC2193CBC805A0F6E76429FE13.jpeg" width="400.00" height="300.00" transform="matrix(0.71, 0.00, -0.00, -0.71, -53.7, 769.4)"></image></g></g><image xlink:href="081DB10315C22AF618AE71B1B4BC2B22.jpeg" width="322.00" height="259.00" transform="matrix(1.00, 0.00, -0.00, -1.00, 187.2, 769.7)"></image><image xlink:href="F8CF154AD8B75CC911619DC842E7A129.jpeg" width="600.00" height="250.00" transform="matrix(0.66, 0.00, -0.00, -0.66, 151.0, 432.1)"></image><image xlink:href="2EC73CFBC14DAAE557C286CE9D6CA07E.png" width="475.00" height="200.00" transform="matrix(0.76, 0.00, -0.00, -0.76, 487.2, 618.8)"></image><image xlink:href="6D9DD32B41E97098B5DFECC85060F451.jpeg" width="535.00" height="380.00" transform="matrix(0.28, 0.00, -0.00, -0.28, 48.2, 517.2)"></image><image xlink:href="E3857B1BBB0E7E5400D24B297DF1DBA1.jpeg" width="325.00" height="260.00" transform="matrix(0.80, 0.00, -0.00, -0.80, 427.4, 413.0)"></image></g></svg>